<svg width="14" height="14" viewBox="0 0 14 14" fill="none" xmlns="http://www.w3.org/2000/svg">
<path fill-rule="evenodd" clip-rule="evenodd" d="M6 0H12C13.1523 0 14 0.839564 14 1.98077V7.92308C14 9.06428 13.1523 9.90385 12 9.90385H10V11.8846C10 13.0258 9.15228 13.8654 8 13.8654H2C0.847715 13.8654 0 13.0258 0 11.8846V5.94229C0 4.80108 0.847715 3.96152 2 3.96152H4V1.98077C4 0.839564 4.84772 0 6 0ZM4 5.94229H2V11.8846H8V9.90385H6C4.84772 9.90385 4 9.06428 4 7.92308V5.94229ZM6 1.98075V7.92306H12V1.98075H6Z" fill="#8B90A0"/>
</svg>
