<svg width="153" height="32" viewBox="0 0 153 32" fill="none" xmlns="http://www.w3.org/2000/svg">
<path d="M41.8857 14.3545C41.8857 14.0036 41.7604 13.7301 41.5098 13.5342C41.2637 13.3382 40.8285 13.1354 40.2041 12.9258C39.5798 12.7161 39.0693 12.5133 38.6729 12.3174C37.3831 11.6839 36.7383 10.8135 36.7383 9.70605C36.7383 9.15462 36.8978 8.66927 37.2168 8.25C37.5404 7.82617 37.9961 7.49805 38.584 7.26562C39.1719 7.02865 39.8327 6.91016 40.5664 6.91016C41.2819 6.91016 41.9222 7.03776 42.4873 7.29297C43.057 7.54818 43.499 7.91276 43.8135 8.38672C44.1279 8.85612 44.2852 9.39388 44.2852 10H41.8926C41.8926 9.5944 41.7673 9.27995 41.5166 9.05664C41.2705 8.83333 40.9355 8.72168 40.5117 8.72168C40.0833 8.72168 39.7438 8.81738 39.4932 9.00879C39.2471 9.19564 39.124 9.4349 39.124 9.72656C39.124 9.98177 39.2607 10.2142 39.5342 10.4238C39.8076 10.6289 40.2884 10.8431 40.9766 11.0664C41.6647 11.2852 42.2298 11.5221 42.6719 11.7773C43.7474 12.3971 44.2852 13.2516 44.2852 14.3408C44.2852 15.2113 43.957 15.8949 43.3008 16.3916C42.6445 16.8883 41.7445 17.1367 40.6006 17.1367C39.7939 17.1367 39.0625 16.9932 38.4062 16.7061C37.7546 16.4144 37.2624 16.0179 36.9297 15.5166C36.6016 15.0107 36.4375 14.4297 36.4375 13.7734H38.8438C38.8438 14.3066 38.9805 14.7008 39.2539 14.9561C39.5319 15.2067 39.9808 15.332 40.6006 15.332C40.9971 15.332 41.3092 15.2477 41.5371 15.0791C41.7695 14.9059 41.8857 14.6644 41.8857 14.3545ZM51.117 7.04688L53.3387 13.9717L55.5535 7.04688H58.7117V17H56.3055V14.6758L56.5379 9.91797L54.1316 17H52.5457L50.1326 9.91113L50.365 14.6758V17H47.9656V7.04688H51.117ZM67.8268 14.3545C67.8268 14.0036 67.7014 13.7301 67.4508 13.5342C67.2047 13.3382 66.7695 13.1354 66.1451 12.9258C65.5208 12.7161 65.0104 12.5133 64.6139 12.3174C63.3242 11.6839 62.6793 10.8135 62.6793 9.70605C62.6793 9.15462 62.8388 8.66927 63.1578 8.25C63.4814 7.82617 63.9371 7.49805 64.525 7.26562C65.1129 7.02865 65.7737 6.91016 66.5074 6.91016C67.2229 6.91016 67.8632 7.03776 68.4283 7.29297C68.998 7.54818 69.44 7.91276 69.7545 8.38672C70.0689 8.85612 70.2262 9.39388 70.2262 10H67.8336C67.8336 9.5944 67.7083 9.27995 67.4576 9.05664C67.2115 8.83333 66.8766 8.72168 66.4527 8.72168C66.0243 8.72168 65.6848 8.81738 65.4342 9.00879C65.1881 9.19564 65.065 9.4349 65.065 9.72656C65.065 9.98177 65.2018 10.2142 65.4752 10.4238C65.7486 10.6289 66.2294 10.8431 66.9176 11.0664C67.6057 11.2852 68.1708 11.5221 68.6129 11.7773C69.6884 12.3971 70.2262 13.2516 70.2262 14.3408C70.2262 15.2113 69.898 15.8949 69.2418 16.3916C68.5855 16.8883 67.6855 17.1367 66.5416 17.1367C65.735 17.1367 65.0035 16.9932 64.3473 16.7061C63.6956 16.4144 63.2034 16.0179 62.8707 15.5166C62.5426 15.0107 62.3785 14.4297 62.3785 13.7734H64.7848C64.7848 14.3066 64.9215 14.7008 65.1949 14.9561C65.4729 15.2067 65.9218 15.332 66.5416 15.332C66.9381 15.332 67.2503 15.2477 67.4781 15.0791C67.7105 14.9059 67.8268 14.6644 67.8268 14.3545ZM84.9768 14.3545C84.9768 14.0036 84.8514 13.7301 84.6008 13.5342C84.3547 13.3382 83.9195 13.1354 83.2951 12.9258C82.6708 12.7161 82.1604 12.5133 81.7639 12.3174C80.4742 11.6839 79.8293 10.8135 79.8293 9.70605C79.8293 9.15462 79.9888 8.66927 80.3078 8.25C80.6314 7.82617 81.0871 7.49805 81.675 7.26562C82.2629 7.02865 82.9237 6.91016 83.6574 6.91016C84.3729 6.91016 85.0132 7.03776 85.5783 7.29297C86.148 7.54818 86.59 7.91276 86.9045 8.38672C87.2189 8.85612 87.3762 9.39388 87.3762 10H84.9836C84.9836 9.5944 84.8583 9.27995 84.6076 9.05664C84.3615 8.83333 84.0266 8.72168 83.6027 8.72168C83.1743 8.72168 82.8348 8.81738 82.5842 9.00879C82.3381 9.19564 82.215 9.4349 82.215 9.72656C82.215 9.98177 82.3518 10.2142 82.6252 10.4238C82.8986 10.6289 83.3794 10.8431 84.0676 11.0664C84.7557 11.2852 85.3208 11.5221 85.7629 11.7773C86.8384 12.3971 87.3762 13.2516 87.3762 14.3408C87.3762 15.2113 87.048 15.8949 86.3918 16.3916C85.7355 16.8883 84.8355 17.1367 83.6916 17.1367C82.885 17.1367 82.1535 16.9932 81.4973 16.7061C80.8456 16.4144 80.3534 16.0179 80.0207 15.5166C79.6926 15.0107 79.5285 14.4297 79.5285 13.7734H81.9348C81.9348 14.3066 82.0715 14.7008 82.3449 14.9561C82.6229 15.2067 83.0718 15.332 83.6916 15.332C84.0881 15.332 84.4003 15.2477 84.6281 15.0791C84.8605 14.9059 84.9768 14.6644 84.9768 14.3545ZM97.2295 12.7822H93.4561V15.1543H97.9131V17H91.0566V7.04688H97.9268V8.89941H93.4561V10.998H97.2295V12.7822ZM105.039 13.4863H103.74V17H101.341V7.04688H105.258C106.438 7.04688 107.361 7.30892 108.026 7.83301C108.692 8.3571 109.024 9.09766 109.024 10.0547C109.024 10.7474 108.883 11.3216 108.6 11.7773C108.322 12.2331 107.885 12.6022 107.288 12.8848L109.366 16.8975V17H106.796L105.039 13.4863ZM103.74 11.6338H105.258C105.713 11.6338 106.055 11.5153 106.283 11.2783C106.515 11.0368 106.632 10.7018 106.632 10.2734C106.632 9.84505 106.515 9.51009 106.283 9.26855C106.051 9.02246 105.709 8.89941 105.258 8.89941H103.74V11.6338ZM116.649 14.293L118.631 7.04688H121.311L117.962 17H115.337L112.014 7.04688H114.673L116.649 14.293ZM127.049 17H124.657V7.04688H127.049V17ZM139.22 13.6299C139.188 14.3226 139.001 14.9355 138.659 15.4688C138.318 15.9974 137.837 16.4076 137.217 16.6992C136.602 16.9909 135.898 17.1367 135.105 17.1367C133.797 17.1367 132.767 16.7106 132.015 15.8584C131.263 15.0062 130.887 13.8031 130.887 12.249V11.7568C130.887 10.7816 131.056 9.92936 131.393 9.2002C131.735 8.46647 132.224 7.90137 132.863 7.50488C133.501 7.10384 134.239 6.90332 135.077 6.90332C136.285 6.90332 137.256 7.22233 137.989 7.86035C138.723 8.49382 139.14 9.36882 139.24 10.4854H136.848C136.83 9.87923 136.677 9.44401 136.39 9.17969C136.103 8.91536 135.665 8.7832 135.077 8.7832C134.48 8.7832 134.043 9.00651 133.765 9.45312C133.487 9.89974 133.341 10.613 133.327 11.5928V12.2969C133.327 13.3587 133.46 14.1175 133.724 14.5732C133.993 15.029 134.453 15.2568 135.105 15.2568C135.656 15.2568 136.078 15.127 136.369 14.8672C136.661 14.6074 136.816 14.195 136.834 13.6299H139.22ZM148.978 12.7822H145.204V15.1543H149.661V17H142.805V7.04688H149.675V8.89941H145.204V10.998H148.978V12.7822Z" fill="white"/>
<g opacity="0.34" filter="url(#filter0_f)">
<path d="M6 21L13.9967 21C15.101 21 15.9963 20.1049 15.9967 19.0006L15.9998 8.83271C15.9999 8.33729 15.8162 7.85944 15.4842 7.49174L13.8371 5.66767C13.4537 5.24304 12.9068 5.00295 12.3347 5.00811L5.98198 5.06535C4.88449 5.07523 4 5.96772 4 7.06526L4 19C4 20.1046 4.89543 21 6 21Z" fill="black"/>
</g>
<path d="M6 19L16.996 19C17.5482 19 17.9958 18.5525 17.996 18.0003L17.9999 3.99632C18 3.76424 17.9193 3.53937 17.7717 3.36024L15.3076 0.368861C15.1154 0.135588 14.8281 0.00173483 14.5259 0.00471973L5.99012 0.0890258C5.44172 0.0944423 5 0.540546 5 1.08898L5 18C5 18.5523 5.44772 19 6 19Z" fill="url(#paint0_linear)"/>
<rect x="7" y="5" width="8.75" height="12" rx="1" fill="url(#paint1_linear)"/>
<g opacity="0.34" filter="url(#filter1_f)">
<path fill-rule="evenodd" clip-rule="evenodd" d="M14.5 9C10.3579 9 7 12.3579 7 16.5C7 20.6421 10.3579 24 14.5 24H18.9927C19.7213 24 20.3922 24.3962 20.744 25.0341L21.6296 26.6398C21.9917 27.2962 22.8332 27.3065 23.2076 26.6589L26.213 21.4613C26.2209 21.4475 26.2093 21.4307 26.1936 21.4333C26.1762 21.4362 26.1647 21.4157 26.1762 21.4023C27.3126 20.0877 28 18.3741 28 16.5C28 12.3579 24.6421 9 20.5 9H14.5Z" fill="black"/>
</g>
<path fill-rule="evenodd" clip-rule="evenodd" d="M15.5 7C11.3579 7 8 10.3579 8 14.5C8 18.6421 11.3579 22 15.5 22H20.0554L21.7735 24.7256C22.162 25.342 23.065 25.3516 23.4668 24.7436L26.6052 19.9943C28.0784 18.6248 29 16.67 29 14.5C29 10.3579 25.6421 7 21.5 7H15.5Z" fill="url(#paint2_linear)"/>
<path d="M13.3675 17V16.048H14.0325V15.425H13.3675V12.114H12.3315L10.3505 15.369V16.048H12.6185V17H13.3675ZM12.5695 12.835H12.6185V15.425H11.0225L12.5695 12.835ZM16.4167 17.084C17.4527 17.084 18.1317 16.405 18.1317 15.425C18.1317 14.501 17.5227 13.913 16.6967 13.913C16.0877 13.913 15.7657 14.242 15.5627 14.627L15.5137 14.613C15.7517 13.563 16.3887 12.919 17.4947 12.114H16.4447C15.6397 12.646 14.6947 13.766 14.6947 15.18C14.6947 16.349 15.3387 17.084 16.4167 17.084ZM16.4167 16.44C15.8497 16.44 15.5137 16.125 15.5137 15.544V15.446C15.5137 14.865 15.8497 14.55 16.4167 14.55C16.9837 14.55 17.3197 14.865 17.3197 15.446V15.544C17.3197 16.125 16.9837 16.44 16.4167 16.44ZM22.056 12.114H19.284L19.102 14.837L19.753 14.928C19.928 14.732 20.159 14.543 20.579 14.543C21.153 14.543 21.482 14.879 21.482 15.439V15.523C21.482 16.083 21.153 16.419 20.579 16.419C20.033 16.419 19.76 16.139 19.522 15.754L18.948 16.209C19.242 16.657 19.697 17.084 20.565 17.084C21.671 17.084 22.308 16.391 22.308 15.418C22.308 14.459 21.671 13.892 20.831 13.892C20.271 13.892 20.026 14.144 19.809 14.529H19.76L19.886 12.8H22.056V12.114ZM24.0343 14.123V14.795H24.5523C25.1683 14.795 25.5183 15.068 25.5183 15.565V15.614C25.5183 16.118 25.1893 16.419 24.5943 16.419C24.0273 16.419 23.7403 16.146 23.5023 15.754L22.9213 16.209C23.2293 16.657 23.6843 17.084 24.5943 17.084C25.6373 17.084 26.3373 16.51 26.3373 15.656C26.3373 14.949 25.8683 14.55 25.3153 14.445V14.41C25.8263 14.298 26.2533 13.913 26.2533 13.29C26.2533 12.499 25.5883 12.03 24.6643 12.03C23.8523 12.03 23.4043 12.408 23.1103 12.835L23.6353 13.29C23.8593 12.919 24.1813 12.695 24.6433 12.695C25.1123 12.695 25.4203 12.947 25.4203 13.388V13.437C25.4203 13.836 25.1333 14.123 24.5313 14.123H24.0343Z" fill="url(#paint3_linear)"/>
<defs>
<filter id="filter0_f" x="0" y="1.00806" width="19.9998" height="23.992" filterUnits="userSpaceOnUse" color-interpolation-filters="sRGB">
<feFlood flood-opacity="0" result="BackgroundImageFix"/>
<feBlend mode="normal" in="SourceGraphic" in2="BackgroundImageFix" result="shape"/>
<feGaussianBlur stdDeviation="2" result="effect1_foregroundBlur"/>
</filter>
<filter id="filter1_f" x="3" y="5" width="29" height="26.1384" filterUnits="userSpaceOnUse" color-interpolation-filters="sRGB">
<feFlood flood-opacity="0" result="BackgroundImageFix"/>
<feBlend mode="normal" in="SourceGraphic" in2="BackgroundImageFix" result="shape"/>
<feGaussianBlur stdDeviation="2" result="effect1_foregroundBlur"/>
</filter>
<linearGradient id="paint0_linear" x1="14.75" y1="18.1338" x2="13.3548" y2="0.485126" gradientUnits="userSpaceOnUse">
<stop stop-color="#E2C299"/>
<stop offset="1" stop-color="#C5A67C"/>
</linearGradient>
<linearGradient id="paint1_linear" x1="15.4874" y1="5.63394" x2="4.8151" y2="13.1468" gradientUnits="userSpaceOnUse">
<stop stop-color="#EBDAC5"/>
<stop offset="1" stop-color="#E1CFB7"/>
</linearGradient>
<linearGradient id="paint2_linear" x1="28.6367" y1="16.7304" x2="6.83225" y2="16.7304" gradientUnits="userSpaceOnUse">
<stop stop-color="#DEDEDE"/>
<stop offset="1" stop-color="#787878"/>
</linearGradient>
<linearGradient id="paint3_linear" x1="26.375" y1="15.5" x2="11.9375" y2="15.5" gradientUnits="userSpaceOnUse">
<stop stop-color="#A4A4A4"/>
<stop offset="1" stop-color="#272727"/>
</linearGradient>
</defs>
</svg>
