<svg width="25" height="25" viewBox="0 0 25 25" fill="none" xmlns="http://www.w3.org/2000/svg">
<g id="24 / basic / user">
<path id="icon" fill-rule="evenodd" clip-rule="evenodd" d="M12.5835 23.6431C6.50836 23.6431 1.5835 18.5805 1.5835 12.3355C1.5835 6.09052 6.50836 1.02795 12.5835 1.02795C18.6586 1.02795 23.5835 6.09052 23.5835 12.3355C23.5835 18.5805 18.6586 23.6431 12.5835 23.6431ZM19.983 17.6034C20.9921 16.1085 21.5835 14.293 21.5835 12.3355C21.5835 7.22597 17.5541 3.08387 12.5835 3.08387C7.61293 3.08387 3.5835 7.22597 3.5835 12.3355C3.5835 14.293 4.17488 16.1085 5.184 17.6034C6.30945 16.0753 8.9541 15.4194 12.5835 15.4194C16.2129 15.4194 18.8575 16.0753 19.983 17.6034ZM18.5482 19.2637C18.2555 18.1819 16.1529 17.4753 12.5835 17.4753C9.01412 17.4753 6.9115 18.1819 6.61881 19.2637C8.2068 20.7095 10.2954 21.5872 12.5835 21.5872C14.8716 21.5872 16.9602 20.7095 18.5482 19.2637ZM12.5835 6.16775C10.1626 6.16775 8.5835 7.9726 8.5835 10.2796C8.5835 13.8028 10.3444 15.4194 12.5835 15.4194C14.8016 15.4194 16.5835 13.8565 16.5835 10.4852C16.5835 8.14306 14.9977 6.16775 12.5835 6.16775ZM10.5835 10.2796C10.5835 12.6123 11.4017 13.3635 12.5835 13.3635C13.7612 13.3635 14.5835 12.6422 14.5835 10.4852C14.5835 9.20066 13.7992 8.22367 12.5835 8.22367C11.3172 8.22367 10.5835 9.06231 10.5835 10.2796Z" fill="url(#paint0_linear)"/>
</g>
<defs>
<linearGradient id="paint0_linear" x1="22.5806" y1="6.68173" x2="2.04635" y2="7.80115" gradientUnits="userSpaceOnUse">
<stop stop-color="#E2C299"/>
<stop offset="1" stop-color="#C5A67C"/>
</linearGradient>
</defs>
</svg>
