<svg width="25" height="18" viewBox="0 0 25 18" fill="none" xmlns="http://www.w3.org/2000/svg">
<path fill-rule="evenodd" clip-rule="evenodd" d="M2.75 0C1.23122 0 0 1.23122 0 2.75V14.75C0 16.2688 1.23122 17.5 2.75 17.5H18.75C20.2688 17.5 21.5 16.2688 21.5 14.75V14.25H20V14.75C20 15.4404 19.4404 16 18.75 16H2.75C2.05964 16 1.5 15.4404 1.5 14.75V3.75H2.75H18.75H20V4.25H21.5V2.75C21.5 1.23122 20.2688 0 18.75 0H2.75ZM22.9687 12.7157L23.7078 11.9766L23.4475 11.031L23.5609 10.7602L24.4167 10.2773V9.23215L23.5633 8.74724L23.4518 8.47689L23.7154 7.53078L22.9758 6.79228L22.0301 7.05249L21.7599 6.93919L21.2769 6.08333H20.2318L19.7469 6.93668L19.4766 7.04815L18.5307 6.78427L17.7922 7.5227L18.0525 8.46856L17.9392 8.73878L17.0833 9.22171V10.2665L17.9359 10.7525L18.0475 11.0231L17.784 11.9691L18.5227 12.7078L19.4686 12.4475L19.7388 12.5608L20.2218 13.4163H21.2666L21.7522 12.5637L22.0228 12.4522L22.9687 12.7157ZM23.0342 10.2919L22.7436 10.9859L22.9621 11.7795L22.7726 11.969L21.9807 11.7484L21.2863 12.0347L20.8791 12.7497H20.611L20.2071 12.0343L19.5139 11.7436L18.7198 11.9621L18.5307 11.7729L18.7513 10.981L18.4649 10.2867L17.75 9.87918V9.61101L18.4657 9.20717L18.7564 8.51385L18.5379 7.71982L18.7267 7.53107L19.5186 7.75198L20.2132 7.46552L20.6198 6.75H20.8876L21.2915 7.4657L21.9848 7.7564L22.779 7.53787L22.9686 7.72722L22.748 8.51898L23.0345 9.21352L23.75 9.6201V9.88798L23.0342 10.2919ZM20.75 11.0833C20.0136 11.0833 19.4167 10.4864 19.4167 9.75C19.4167 9.01362 20.0136 8.41667 20.75 8.41667C21.4864 8.41667 22.0833 9.01362 22.0833 9.75C22.0833 10.4864 21.4864 11.0833 20.75 11.0833ZM21.4167 9.75C21.4167 10.1182 21.1182 10.4167 20.75 10.4167C20.3818 10.4167 20.0833 10.1182 20.0833 9.75C20.0833 9.38181 20.3818 9.08333 20.75 9.08333C21.1182 9.08333 21.4167 9.38181 21.4167 9.75ZM5.20605 10.7246H7.00391L7.34912 11.75H8.43945L6.57666 6.77344H5.62646L3.77393 11.75H4.86426L5.20605 10.7246ZM6.72705 9.89404H5.48291L6.10156 8.03125L6.72705 9.89404ZM9.92969 11.75V9.99658H10.8286C11.4188 9.99658 11.8802 9.85645 12.2129 9.57617C12.5479 9.29362 12.7153 8.90853 12.7153 8.4209C12.7153 8.09961 12.639 7.81364 12.4863 7.56299C12.3337 7.31006 12.1149 7.11523 11.8301 6.97852C11.5475 6.8418 11.2194 6.77344 10.8457 6.77344H8.9043V11.75H9.92969ZM10.8457 9.16602H9.92969V7.604H10.8696C11.1226 7.60856 11.3208 7.68604 11.4644 7.83643C11.6079 7.98682 11.6797 8.18392 11.6797 8.42773C11.6797 8.66471 11.6079 8.847 11.4644 8.97461C11.3231 9.10221 11.1169 9.16602 10.8457 9.16602ZM13.4878 11.75H14.5132V6.77344H13.4878V11.75Z" fill="#A1A4B1"/>
</svg>
