<svg width="21" height="21" viewBox="0 0 21 21" fill="none" xmlns="http://www.w3.org/2000/svg">
<path fill-rule="evenodd" clip-rule="evenodd" d="M9.85657 6.33814C10.3747 5.63994 10.5605 4.90409 9.9745 4.25455C8.65955 2.41457 7.77521 1.27674 7.22051 0.728782C6.16595 -0.312952 4.43118 -0.172041 3.51785 0.727891C3.0273 1.21125 2.86122 1.37724 2.35753 1.88885C-0.448123 4.69601 1.26291 10.6302 5.81145 15.1833C10.359 19.7352 16.2926 21.4472 19.1042 18.6341C19.569 18.186 19.9625 17.7923 20.2729 17.4642C21.1679 16.5182 21.3038 14.86 20.267 13.7827C19.7354 13.2303 18.6504 12.3887 16.733 11.0172C16.1457 10.4921 15.4495 10.6059 14.8111 11.0247C14.504 11.2261 14.2806 11.4299 13.8586 11.8523L13.0924 12.619C12.9914 12.7199 11.621 12.0337 10.2908 10.7021C8.95978 9.36977 8.27396 7.9993 8.37441 7.89886L9.14118 7.13167C9.27506 6.99766 9.33906 6.93278 9.42114 6.84651C9.59215 6.66679 9.73374 6.50368 9.85657 6.33814ZM14.5058 14.0332L15.2722 13.2664C15.5044 13.0339 15.6549 12.891 15.7774 12.7924C17.457 13.9986 18.4298 14.7571 18.8271 15.1699C19.0657 15.4178 19.0286 15.8701 18.8212 16.0893C18.5342 16.3926 18.1614 16.7657 17.7038 17.207C15.8858 19.0258 11.096 17.6439 7.22519 13.7693C3.35321 9.89356 1.97194 5.10304 3.77626 3.29773C4.27792 2.78822 4.43686 2.62936 4.92042 2.1529C5.10172 1.97425 5.59558 1.93414 5.81614 2.15201C6.2432 2.57388 7.0354 3.58823 8.20077 5.21157C8.14044 5.28647 8.06509 5.37112 7.97339 5.46749C7.90609 5.53822 7.85002 5.59506 7.72744 5.71776L6.96142 6.4842C5.65827 7.78724 6.76808 10.005 8.87703 12.116C10.9845 14.2256 13.2031 15.3366 14.5058 14.0332Z" fill="#D3D4D8"/>
</svg>
