<svg width="32" height="22" viewBox="0 0 32 22" fill="none" xmlns="http://www.w3.org/2000/svg">
<path fill-rule="evenodd" clip-rule="evenodd" d="M7.01723 19.0036C7.02243 19.1265 7.00917 19.2464 6.9833 19.3677C6.93785 19.5809 6.85007 19.8065 6.72581 20.015C6.37259 20.6075 5.77254 21.0029 5 21.0029C3.1801 21.0029 2.46584 20.1101 1.57152 17.8743C0.965836 16.3601 0.680098 16.0029 0 16.0029V14.0029C1.8199 14.0029 2.53416 14.8958 3.42848 17.1315C4.03416 18.6458 4.3199 19.0029 5 19.0029C5 18.7128 4.99603 18.4557 4.98766 18.1077C4.96806 17.2919 4.96581 17.1253 5.0014 16.9072C5.01562 16.4311 5.13854 16.0933 5.385 15.7581C3.15319 15.2722 1.64792 14.2689 0.783974 12.6414L0.460337 11.8803C0.145045 10.9742 0 9.94753 0 8.76183C0 7.39627 0.416346 6.17529 1.19402 5.15467C0.951427 4.18453 0.98465 2.99922 1.52031 1.6606L1.69534 1.2232L2.14407 1.07966C2.20415 1.06044 2.27718 1.04309 2.36299 1.02962C3.23676 0.892479 4.4801 1.21968 6.10555 2.26084C7.06377 2.03872 8.07285 1.92657 9.08877 1.92657C9.99663 1.92657 10.8995 2.0181 11.7616 2.19854C13.3431 1.20821 14.5522 0.897599 15.4025 1.02979C15.4873 1.04298 15.5596 1.06001 15.6192 1.0789L16.0707 1.22209L16.246 1.66216C16.7146 2.8389 16.795 3.92336 16.6245 4.87229C17.5185 5.945 18 7.26378 18 8.76183C18 10.0248 17.9095 10.9744 17.6494 11.8983L17.3749 12.6517C16.6563 14.2774 15.0715 15.292 12.6275 15.7752C12.8816 16.127 13 16.484 13 17.0029V18.0029C13 18.4875 13 18.5025 12.9989 19.0029C13.0012 19.0389 13.0042 19.0565 13.0074 19.0674L13 21.0029C12.1482 21.0029 11.5149 20.5875 11.2034 19.9323C11.0419 19.5925 10.9936 19.2681 11 18.9887V17.0029C11 16.9191 10.9971 16.9142 10.7929 16.71C10.2471 16.1642 10 15.7524 10 15.0029V14.0983L10.9001 14.0079C13.5793 13.7389 15.0365 12.9948 15.5197 11.9078L15.7455 11.2906C15.9251 10.6452 16 9.85926 16 8.76183C16 7.59574 15.5929 6.63247 14.823 5.86286L14.3998 5.43984L14.5725 4.86696C14.726 4.35801 14.7624 3.75579 14.6001 3.0689C14.5731 3.07573 14.5451 3.08318 14.516 3.09128C13.9805 3.24035 13.312 3.56021 12.5064 4.09869L12.139 4.34429L11.7101 4.23792C10.8804 4.0322 9.98885 3.92657 9.08877 3.92657C8.08786 3.92657 7.09846 4.05392 6.18446 4.3031L5.73841 4.4247L5.35682 4.16366C4.52363 3.59367 3.83145 3.25471 3.27642 3.09637C3.23678 3.08506 3.19904 3.07494 3.16316 3.06592C2.96952 3.86091 3.04611 4.51406 3.24223 5.00416L3.47738 5.59181L3.04689 6.05582C2.3609 6.7952 2 7.69497 2 8.76183C2 9.73859 2.11434 10.548 2.32388 11.1576L2.58557 11.7771C3.23974 13.0046 4.6292 13.7431 7.10658 14.0086L8 14.1044V15.0029C8 15.7524 7.75291 16.1642 7.20711 16.71C7.00291 16.9142 7 16.9191 7 17.0029L6.98276 17.1878C6.97136 17.2484 6.97136 17.405 6.98709 18.0596C6.99432 18.3607 6.99844 18.599 6.99963 18.848C7.01158 18.8996 7.01339 18.9328 7.01723 19.0036Z" fill="#D3D4D8"/>
<path fill-rule="evenodd" clip-rule="evenodd" d="M23.3293 2.30667C21.4156 1.7939 19.3862 1.92691 17.5558 2.68509L16.7904 0.837329C19.0276 -0.0893299 21.508 -0.251904 23.8469 0.37482C26.1859 1.00154 28.2527 2.38254 29.7268 4.30363C31.2009 6.22471 31.9999 8.57853 31.9999 11C31.9999 13.4215 31.2009 15.7753 29.7268 17.6964C28.2527 19.6175 26.1859 20.9985 23.8469 21.6252C21.508 22.2519 19.0276 22.0893 16.7904 21.1627L17.5558 19.3149C19.3862 20.0731 21.4156 20.2061 23.3293 19.6933C25.243 19.1806 26.934 18.0507 28.1401 16.4789C29.3462 14.9071 29.9999 12.9812 29.9999 11C29.9999 9.0188 29.3462 7.09295 28.1401 5.52115C26.934 3.94935 25.243 2.81945 23.3293 2.30667Z" fill="#D3D4D8"/>
<path d="M22.4004 13.3818C22.4004 13.0081 22.2956 12.7119 22.0859 12.4932C21.8809 12.2699 21.5299 12.0648 21.0332 11.8779C20.5365 11.6911 20.1081 11.5065 19.748 11.3242C19.388 11.1374 19.0781 10.9255 18.8184 10.6885C18.5632 10.4469 18.3626 10.1644 18.2168 9.84082C18.0755 9.51725 18.0049 9.13216 18.0049 8.68555C18.0049 7.91536 18.251 7.28418 18.7432 6.79199C19.2354 6.29981 19.8893 6.0127 20.7051 5.93066V4.46777H21.7988V5.95117C22.6055 6.0651 23.2367 6.40234 23.6924 6.96289C24.1481 7.51888 24.376 8.24121 24.376 9.12988H22.4004C22.4004 8.58301 22.2865 8.17513 22.0586 7.90625C21.8353 7.63281 21.5345 7.49609 21.1562 7.49609C20.7826 7.49609 20.4932 7.60319 20.2881 7.81738C20.083 8.02702 19.9805 8.31868 19.9805 8.69238C19.9805 9.03874 20.0807 9.31673 20.2812 9.52637C20.4818 9.736 20.8532 9.9502 21.3955 10.1689C21.9424 10.3877 22.3913 10.5951 22.7422 10.791C23.0931 10.9824 23.3893 11.2012 23.6309 11.4473C23.8724 11.6888 24.057 11.9668 24.1846 12.2812C24.3122 12.5911 24.376 12.9535 24.376 13.3682C24.376 14.1429 24.1344 14.7718 23.6514 15.2549C23.1683 15.738 22.5029 16.0228 21.6553 16.1094V17.4697H20.5684V16.1162C19.6341 16.016 18.9095 15.6855 18.3945 15.125C17.8841 14.5599 17.6289 13.8102 17.6289 12.876H19.6045C19.6045 13.4183 19.7321 13.8353 19.9873 14.127C20.2471 14.4141 20.6185 14.5576 21.1016 14.5576C21.5026 14.5576 21.8193 14.4528 22.0518 14.2432C22.2842 14.029 22.4004 13.7419 22.4004 13.3818Z" fill="#D3D4D8"/>
</svg>
