<svg width="20" height="24" viewBox="0 0 20 24" fill="none" xmlns="http://www.w3.org/2000/svg">
<path fill-rule="evenodd" clip-rule="evenodd" d="M13.4506 0.094497C14.5126 -0.27566 15.6196 0.474519 15.923 1.77007C15.9741 1.98803 16 2.21361 16 2.4403V4.48263H18C19.1046 4.48263 20 5.57491 20 6.9223V21.5603C20 22.9077 19.1046 24 18 24H2C0.89543 24 0 22.9077 0 21.5603H0.0267031C0.00895166 21.4291 0 21.2963 0 21.163V6.62259C0 5.53333 0.591955 4.57603 1.45056 4.27679L13.4506 0.094497ZM8.14006 21.5603H18V11.8015H16V16.9807C16 18.07 15.408 19.0273 14.5494 19.3265L8.14006 21.5603ZM18 6.9223V9.36184H16V6.9223H18ZM2 6.6227V21.1631L14 16.9808V2.4404L2 6.6227ZM12 9.36204C12 10.0357 11.5523 10.5819 11 10.5819C10.4477 10.5819 10 10.0357 10 9.36204C10 8.68834 10.4477 8.14221 11 8.14221C11.5523 8.14221 12 8.68834 12 9.36204Z" fill="#D3D4D8"/>
</svg>
