<svg width="16" height="22" viewBox="0 0 16 22" fill="none" xmlns="http://www.w3.org/2000/svg">
<path fill-rule="evenodd" clip-rule="evenodd" d="M8 0.00012207C10.2091 0.00012207 12 1.79098 12 4.00012V11.0001C12 13.2093 10.2091 15.0001 8 15.0001C5.79086 15.0001 4 13.2093 4 11.0001V4.00012C4 1.79098 5.79086 0.00012207 8 0.00012207ZM9 18.9382V20.0001H12V22.0001H4V20.0001H7V18.9382C3.05369 18.4461 0 15.0797 0 11.0001V9.00012H2V11.0001C2 14.3138 4.68629 17.0001 8 17.0001C11.3137 17.0001 14 14.3138 14 11.0001V9.00012H16V11.0001C16 15.0797 12.9463 18.4461 9 18.9382ZM6 4.00012C6 2.89555 6.89543 2.00012 8 2.00012C9.10457 2.00012 10 2.89555 10 4.00012V11.0001C10 12.1047 9.10457 13.0001 8 13.0001C6.89543 13.0001 6 12.1047 6 11.0001V4.00012Z" fill="#D3D4D8"/>
</svg>
