<svg width="23" height="23" viewBox="0 0 23 23" fill="none" xmlns="http://www.w3.org/2000/svg">
<g clip-path="url(#clip0)">
<path d="M19.9052 0H3.10184C1.38563 0 0 1.38563 0 3.10183V19.9052C0 21.6144 1.38563 23 3.10184 23H11.3875L11.4015 14.7777H9.26331C8.98899 14.7777 8.76392 14.5526 8.75688 14.2783L8.74985 11.6266C8.74985 11.3453 8.97493 11.1202 9.25627 11.1202H11.3875V8.55994C11.3875 5.59174 13.2021 3.97401 15.8538 3.97401H18.0272C18.3086 3.97401 18.5336 4.19908 18.5336 4.48043V6.71713C18.5336 6.99847 18.3086 7.22355 18.0272 7.22355H16.6908C15.2489 7.22355 14.9676 7.90581 14.9676 8.91162V11.1272H18.1327C18.4352 11.1272 18.6673 11.3875 18.6321 11.6899L18.3156 14.3416C18.2875 14.5948 18.0694 14.7847 17.8162 14.7847H14.9746V23H19.9052C21.6144 23 23.007 21.6144 23.007 19.8982V3.10183C23 1.38563 21.6144 0 19.9052 0Z" fill="#475993"/>
</g>
<defs>
<clipPath id="clip0">
<rect width="23" height="23" fill="white"/>
</clipPath>
</defs>
</svg>
