<svg width="23" height="23" viewBox="0 0 23 23" fill="none" xmlns="http://www.w3.org/2000/svg">
<path d="M14.9633 11.4964C14.9633 13.4065 13.4137 14.9561 11.5036 14.9561C9.59354 14.9561 8.04387 13.4065 8.04387 11.4964C8.04387 9.58634 9.59354 8.03666 11.5036 8.03666C13.4137 8.03666 14.9633 9.59354 14.9633 11.4964ZM11.5036 0C5.16076 0 0 5.16076 0 11.5036C0 17.8464 5.16076 23 11.5036 23C13.8245 23 16.0661 22.3081 17.9834 20.9962L18.0194 20.9746L16.4698 19.1727L16.4409 19.1871C14.9633 20.1313 13.2623 20.6359 11.5036 20.6359C6.46537 20.6359 2.36415 16.5346 2.36415 11.4964C2.36415 6.45816 6.46537 2.35694 11.5036 2.35694C16.5418 2.35694 20.6431 6.45816 20.6431 11.4964C20.6431 12.1523 20.571 12.8082 20.4268 13.4641C20.1385 14.6534 19.3096 15.0138 18.6825 14.9633C18.0555 14.9129 17.3203 14.466 17.3131 13.3704V11.4964C17.3131 8.28894 14.7039 5.67972 11.4964 5.67972C8.28894 5.67972 5.67972 8.28894 5.67972 11.4964C5.67972 14.7039 8.28894 17.3131 11.4964 17.3131C13.0533 17.3131 14.5164 16.7004 15.6192 15.5976C16.2607 16.5923 17.3059 17.2194 18.4951 17.3131C18.596 17.3203 18.7042 17.3275 18.8051 17.3275C19.6412 17.3275 20.4701 17.0464 21.1404 16.5418C21.8323 16.0157 22.3441 15.2589 22.6252 14.3507C22.6684 14.2065 22.7549 13.8678 22.7549 13.8678V13.8533C22.9207 13.1254 23 12.3974 23 11.4964C23.0072 5.16076 17.8464 0 11.5036 0Z" fill="#FC2C38"/>
</svg>
