<svg width="24" height="23" viewBox="0 0 24 23" fill="none" xmlns="http://www.w3.org/2000/svg">
<path fill-rule="evenodd" clip-rule="evenodd" d="M20.3027 0H3.6973C1.65655 0 0 1.58753 0 3.54324V19.4568C0 21.4125 1.65655 23 3.6973 23H20.3027C22.3435 23 24 21.4125 24 19.4568V3.54324C24 1.58753 22.3435 0 20.3027 0ZM12.7833 16.1001H11.8004C11.8004 16.1001 9.6349 16.2244 7.71889 14.3308C5.63822 12.2556 3.80205 8.13375 3.80205 8.13375C3.80205 8.13375 3.69727 7.8612 3.81203 7.73209C3.94176 7.58386 4.29602 7.57429 4.29602 7.57429L6.64113 7.55995C6.64113 7.55995 6.86068 7.5982 7.02034 7.70818C7.15007 7.79903 7.22492 7.97117 7.22492 7.97117C7.22492 7.97117 7.60413 8.88926 8.10808 9.72128C9.09103 11.3423 9.54508 11.6961 9.87939 11.524C10.3634 11.2705 10.2187 9.22876 10.2187 9.22876C10.2187 9.22876 10.2287 8.4876 9.97419 8.15766C9.77959 7.90423 9.41036 7.82772 9.24571 7.8086C9.11099 7.78947 9.33053 7.49779 9.60995 7.3639C10.0341 7.16785 10.7775 7.1535 11.6607 7.16307C12.3492 7.16785 12.5438 7.21088 12.8133 7.27305C13.4355 7.4166 13.4161 7.87752 13.3742 8.87393C13.3617 9.1719 13.3472 9.51775 13.3472 9.91733C13.3472 10.0071 13.3444 10.1028 13.3416 10.2014C13.327 10.712 13.3102 11.298 13.6615 11.5144C13.8411 11.6244 14.2852 11.5288 15.3829 9.7404C15.9068 8.89404 16.296 7.89467 16.296 7.89467C16.296 7.89467 16.3808 7.71774 16.5156 7.64124C16.6503 7.56473 16.8349 7.58864 16.8349 7.58864L19.3047 7.57429C19.3047 7.57429 20.0482 7.48822 20.168 7.8086C20.2927 8.1481 19.8885 8.9323 18.8806 10.2234C17.9249 11.4455 17.4591 11.8957 17.5005 12.293C17.5309 12.5842 17.834 12.8471 18.4166 13.3649C19.6337 14.4471 19.958 15.015 20.0345 15.1489C20.0405 15.1594 20.0449 15.1672 20.0482 15.1724C20.5921 16.0379 19.4445 16.1049 19.4445 16.1049L17.249 16.1335C17.249 16.1335 16.775 16.2196 16.1563 15.8132C15.8334 15.6 15.5175 15.2527 15.2163 14.9216C14.7541 14.4136 14.3264 13.9435 13.9609 14.0535C13.3472 14.24 13.3671 15.5024 13.3671 15.5024C13.3671 15.5024 13.3721 15.7701 13.2324 15.9136C13.0777 16.0666 12.7833 16.1001 12.7833 16.1001Z" fill="#6579A3"/>
</svg>
