<svg width="23" height="23" viewBox="0 0 23 23" fill="none" xmlns="http://www.w3.org/2000/svg">
<g clip-path="url(#clip0)">
<path fill-rule="evenodd" clip-rule="evenodd" d="M1.26709 6.34472C1.74626 5.31302 2.42087 4.41106 3.21528 3.59559C5.01216 1.7546 7.18732 0.568463 9.75969 0.166905C13.3597 -0.395276 16.5815 0.438729 19.3682 2.7863C19.5448 2.93457 19.5889 3.02105 19.3935 3.20639C18.4099 4.15159 17.4453 5.10915 16.468 6.06054C16.3671 6.15938 16.2978 6.27676 16.1213 6.11614C13.6687 3.91684 9.66512 3.94155 7.06122 6.31383C6.16594 7.1293 5.52915 8.10539 5.11303 9.22358C5.04998 9.18651 4.98694 9.14944 4.93019 9.1062C3.71336 8.19188 2.49023 7.26521 1.26709 6.34472Z" fill="#D7282A"/>
<path fill-rule="evenodd" clip-rule="evenodd" d="M5.08797 13.7271C5.44104 14.6044 5.87607 15.426 6.52547 16.1303C8.17734 17.9157 10.2201 18.6879 12.6727 18.4408C13.8138 18.3234 14.8478 17.9466 15.8188 17.3658C15.9134 17.4462 16.0016 17.5326 16.0962 17.6068C17.2311 18.4779 18.3659 19.3427 19.5008 20.2076C18.2461 21.3752 16.7708 22.1475 15.1063 22.5614C11.191 23.5375 7.57207 22.9197 4.36292 20.4362C3.0326 19.4107 1.9923 18.1442 1.25464 16.643C2.53452 15.6731 3.80809 14.697 5.08797 13.7271Z" fill="#45AC43"/>
<path fill-rule="evenodd" clip-rule="evenodd" d="M19.5071 20.2078C18.3722 19.3429 17.2373 18.4718 16.1025 17.6069C16.0016 17.5328 15.9133 17.4463 15.8251 17.366C16.5942 16.7915 17.2373 16.1119 17.6598 15.247C17.83 14.9011 17.9435 14.5427 18.057 14.1783C18.1326 13.925 18.1074 13.8261 17.7922 13.8323C15.9007 13.8508 14.0093 13.8385 12.1178 13.8385C11.7143 13.8385 11.7143 13.8385 11.7143 13.4307C11.7143 12.1766 11.7206 10.9164 11.708 9.66228C11.708 9.42134 11.7521 9.32867 12.0296 9.32867C15.5161 9.34103 19.0027 9.33485 22.4893 9.33485C22.6784 9.33485 22.7982 9.34721 22.8297 9.56961C23.2647 12.5597 22.918 15.4138 21.3166 18.0517C20.8311 18.861 20.2447 19.5962 19.5071 20.2078Z" fill="#5D7FBE"/>
<path fill-rule="evenodd" clip-rule="evenodd" d="M5.08782 13.7271C3.80794 14.697 2.53437 15.6731 1.25449 16.6431C0.630309 15.5063 0.270934 14.2831 0.100704 13.0105C-0.189318 10.805 0.132228 8.68603 1.08426 6.66588C1.1347 6.55468 1.20405 6.44966 1.26079 6.34464C2.48393 7.26513 3.70706 8.1918 4.9302 9.1123C4.98694 9.15554 5.04999 9.19261 5.11304 9.22968C4.60235 10.7247 4.62757 12.2259 5.08782 13.7271Z" fill="#F4C300"/>
</g>
<defs>
<clipPath id="clip0">
<rect width="23" height="23" fill="white"/>
</clipPath>
</defs>
</svg>
